<svg xmlns="http://www.w3.org/2000/svg" xmlns:xlink="http://www.w3.org/1999/xlink" width="1366" zoomAndPan="magnify" viewBox="0 0 1024.5 576" height="768" preserveAspectRatio="xMidYMid meet" version="1.0"><defs><clipPath id="4dc4d493d3"><path d="M 547 83.023438 L 631 83.023438 L 631 167 L 547 167 Z M 547 83.023438 " clip-rule="nonzero"/></clipPath><clipPath id="23fdcd3513"><path d="M 371 153 L 769.917969 153 L 769.917969 263 L 371 263 Z M 371 153 " clip-rule="nonzero"/></clipPath><clipPath id="84bb0da83d"><path d="M 254.167969 235 L 592 235 L 592 493 L 254.167969 493 Z M 254.167969 235 " clip-rule="nonzero"/></clipPath></defs><g clip-path="url(#4dc4d493d3)"><path fill="#00bf63" d="M 630.605469 124.714844 C 630.605469 126.074219 630.539062 127.429688 630.40625 128.785156 C 630.269531 130.136719 630.070312 131.480469 629.804688 132.816406 C 629.542969 134.152344 629.210938 135.46875 628.816406 136.769531 C 628.421875 138.070312 627.964844 139.351562 627.441406 140.609375 C 626.921875 141.863281 626.339844 143.09375 625.699219 144.292969 C 625.058594 145.492188 624.359375 146.65625 623.605469 147.789062 C 622.847656 148.917969 622.039062 150.011719 621.175781 151.0625 C 620.3125 152.113281 619.402344 153.121094 618.441406 154.082031 C 617.476562 155.042969 616.472656 155.957031 615.421875 156.820312 C 614.367188 157.683594 613.277344 158.492188 612.144531 159.246094 C 611.015625 160.003906 609.851562 160.699219 608.648438 161.34375 C 607.449219 161.984375 606.222656 162.5625 604.964844 163.085938 C 603.710938 163.605469 602.429688 164.0625 601.128906 164.457031 C 599.828125 164.851562 598.507812 165.183594 597.175781 165.449219 C 595.839844 165.714844 594.496094 165.914062 593.144531 166.046875 C 591.789062 166.179688 590.433594 166.246094 589.070312 166.246094 C 587.710938 166.246094 586.355469 166.179688 585 166.046875 C 583.648438 165.914062 582.304688 165.714844 580.96875 165.449219 C 579.636719 165.183594 578.316406 164.851562 577.015625 164.457031 C 575.714844 164.0625 574.433594 163.605469 573.179688 163.085938 C 571.921875 162.5625 570.691406 161.984375 569.492188 161.34375 C 568.292969 160.699219 567.128906 160.003906 565.996094 159.246094 C 564.867188 158.492188 563.777344 157.683594 562.722656 156.820312 C 561.671875 155.957031 560.664062 155.042969 559.703125 154.082031 C 558.742188 153.121094 557.828125 152.113281 556.96875 151.0625 C 556.105469 150.011719 555.292969 148.917969 554.539062 147.789062 C 553.78125 146.65625 553.085938 145.492188 552.445312 144.292969 C 551.800781 143.09375 551.222656 141.863281 550.699219 140.609375 C 550.179688 139.351562 549.722656 138.070312 549.328125 136.769531 C 548.933594 135.46875 548.601562 134.152344 548.335938 132.816406 C 548.070312 131.480469 547.871094 130.136719 547.738281 128.785156 C 547.605469 127.429688 547.539062 126.074219 547.539062 124.714844 C 547.539062 123.351562 547.605469 121.996094 547.738281 120.644531 C 547.871094 119.289062 548.070312 117.945312 548.335938 116.609375 C 548.601562 115.277344 548.933594 113.960938 549.328125 112.65625 C 549.722656 111.355469 550.179688 110.078125 550.699219 108.820312 C 551.222656 107.5625 551.800781 106.335938 552.445312 105.136719 C 553.085938 103.9375 553.78125 102.769531 554.539062 101.640625 C 555.292969 100.507812 556.105469 99.417969 556.96875 98.367188 C 557.828125 97.3125 558.742188 96.308594 559.703125 95.347656 C 560.664062 94.382812 561.671875 93.472656 562.722656 92.609375 C 563.777344 91.746094 564.867188 90.9375 565.996094 90.179688 C 567.128906 89.425781 568.292969 88.726562 569.492188 88.085938 C 570.691406 87.445312 571.921875 86.863281 573.179688 86.34375 C 574.433594 85.820312 575.714844 85.363281 577.015625 84.96875 C 578.316406 84.574219 579.636719 84.246094 580.96875 83.980469 C 582.304688 83.714844 583.648438 83.515625 585 83.382812 C 586.355469 83.246094 587.710938 83.179688 589.070312 83.179688 C 590.433594 83.179688 591.789062 83.246094 593.144531 83.382812 C 594.496094 83.515625 595.839844 83.714844 597.175781 83.980469 C 598.507812 84.246094 599.828125 84.574219 601.128906 84.96875 C 602.429688 85.363281 603.710938 85.820312 604.964844 86.34375 C 606.222656 86.863281 607.449219 87.445312 608.648438 88.085938 C 609.851562 88.726562 611.015625 89.425781 612.144531 90.179688 C 613.277344 90.9375 614.367188 91.746094 615.421875 92.609375 C 616.472656 93.472656 617.476562 94.382812 618.441406 95.347656 C 619.402344 96.308594 620.3125 97.3125 621.175781 98.367188 C 622.039062 99.417969 622.847656 100.507812 623.605469 101.640625 C 624.359375 102.769531 625.058594 103.9375 625.699219 105.136719 C 626.339844 106.335938 626.921875 107.5625 627.441406 108.820312 C 627.964844 110.078125 628.421875 111.355469 628.816406 112.65625 C 629.210938 113.960938 629.542969 115.277344 629.804688 116.609375 C 630.070312 117.945312 630.269531 119.289062 630.40625 120.644531 C 630.539062 121.996094 630.605469 123.351562 630.605469 124.714844 Z M 630.605469 124.714844 " fill-opacity="1" fill-rule="nonzero"/></g><g clip-path="url(#23fdcd3513)"><path fill="#00bf63" d="M 530.183594 164.273438 C 403.675781 116.570312 371.609375 248.050781 371.609375 248.050781 C 444.199219 173.386719 454.570312 187.902344 603.902344 248.050781 C 753.230469 308.199219 769.824219 164.273438 769.824219 164.273438 C 724.195312 248.492188 656.699219 211.976562 530.183594 164.273438 Z M 530.183594 164.273438 " fill-opacity="1" fill-rule="nonzero"/></g><g clip-path="url(#84bb0da83d)"><path fill="#00bf63" d="M 254.167969 492.808594 C 254.167969 492.808594 463.644531 484.511719 530.015625 366.300781 C 530.015625 366.300781 563.332031 430.386719 493.71875 465.855469 C 493.71875 465.855469 695.070312 422.152344 520.359375 235.976562 C 520.355469 235.972656 460.757812 470.496094 254.167969 492.808594 Z M 254.167969 492.808594 " fill-opacity="1" fill-rule="nonzero"/></g></svg>